# xmcd CD database file
#
# Track frame offsets:
#	150
#	19685
#	40767
#	60117
#	76017
#	108690
#	135632
#
# Disc length: 2042 seconds
#
# Revision: 0
# Processed by: cddbd v1.4PL0 Copyright (c) Steve Scherf et al.
# Submitted via: CDex 1.50
#
DISCID=4907f807
DTITLE=Sonny Clark Trio - Blues In The Night
DYEAR=1958
DGENRE=Jazz
TTITLE0=Can`t We Be Friends
TTITLE1=I Cover The Waterfront
TTITLE2=Somebody Love Me
TTITLE3=Dancing In The Dark
TTITLE4=Blues In The Night(alt)
TTITLE5=Blues In The Night
TTITLE6=All Of You
EXTD=YEAR: 1958
EXTT0=
EXTT1=
EXTT2=
EXTT3=
EXTT4=
EXTT5=
EXTT6=
PLAYORDER=
